<svg width="114" height="55" viewBox="0 0 114 55" xmlns="http://www.w3.org/2000/svg"><defs><linearGradient x1=".93" y1="1.387" x2=".118" y2="-.287" id="svgo-krk_logo-9a"><stop offset="0" stop-color="#87A053"/><stop offset=".459" stop-color="#839B3E"/><stop offset="1" stop-color="#61A452"/></linearGradient><linearGradient x1=".88" y1="1.184" x2=".069" y2="-.276" id="svgo-krk_logo-10b"><stop offset="0" stop-color="#788F4B"/><stop offset=".51" stop-color="#839B40"/><stop offset="1" stop-color="#76A84F"/></linearGradient><linearGradient x1=".829" y1="1.263" x2=".099" y2="-.43" id="svgo-krk_logo-11c"><stop offset="0" stop-color="#7E964F"/><stop offset=".471" stop-color="#839B40"/><stop offset="1" stop-color="#76A84F"/></linearGradient><linearGradient x1="1" y1="1.317" x2=".023" y2="-.28" id="svgo-krk_logo-12d"><stop offset="0" stop-color="#6D8146"/><stop offset=".431" stop-color="#839B40"/><stop offset="1" stop-color="#6E9C4A"/></linearGradient><linearGradient x1="1.006" y1=".103" x2=".012" y2=".882" id="svgo-krk_logo-13e"><stop offset="0" stop-color="#B9CC54"/><stop offset="1" stop-color="#7DA647"/></linearGradient><linearGradient x1=".989" y1=".61" x2="-.002" y2=".387" id="svgo-krk_logo-14f"><stop offset="0" stop-color="#B9CC54"/><stop offset="1" stop-color="#7DA647"/></linearGradient><linearGradient x1=".996" y1=".97" x2=".071" y2=".094" id="svgo-krk_logo-15g"><stop offset="0" stop-color="#B9CC54"/><stop offset="1" stop-color="#7DA647"/></linearGradient><linearGradient x1=".02" y1="1.037" x2=".972" y2="-.027" id="svgo-krk_logo-16h"><stop offset="0" stop-color="#7DA647"/><stop offset="1" stop-color="#B9CC54"/></linearGradient></defs><path d="M2.194 53.958c.277 0 .508-.22.508-.495v-2.61h1.16c.695 0 1.104.45 1.513 1.1l.95 1.499c.176.286.552.506.828.506H8.39c.287 0 .364-.22.187-.506L7.23 51.315c-.31-.473-.861-1.145-1.39-1.256.75-.176 1.114-.694 1.39-1.19l1.17-2.115c.166-.297.111-.518-.165-.518H6.987c-.276 0-.574.166-.772.518l-.84 1.488c-.43.77-.883 1.09-1.513 1.09h-1.16v-2.578a.516.516 0 00-.508-.518H1.178a.516.516 0 00-.507.518v6.686c0 .287.231.518.507.518h1.016c.277 0 .508-.22.508-.495v-2.61h1.16c.695 0 1.104.45 1.513 1.1l.95 1.499c.176.286.552.506.828.506H8.39c.287 0 .364-.22.187-.506L7.23 51.315c-.31-.473-.861-1.145-1.39-1.256.75-.176 1.114-.694 1.39-1.19l1.17-2.115c.166-.297.111-.518-.165-.518H6.987c-.276 0-.574.166-.772.518l-.84 1.488c-.43.77-.883 1.09-1.513 1.09h-1.16v-2.578a.516.516 0 00-.508-.518H1.178a.516.516 0 00-.507.518v6.686c0 .287.231.518.507.518h1.016zm11.253-6.2c1.06 0 1.844.22 1.844 1.48 0 1.261-.783 1.482-1.844 1.482h-1.966v-2.963h1.966c1.06 0 1.844.22 1.844 1.482 0 1.26-.783 1.481-1.844 1.481h-1.966v-2.963h1.966zm-3.5-1.522a.497.497 0 00-.497.508v6.708c0 .275.231.506.508.506h1.015c.287 0 .508-.23.508-.506V52.24h2.585c2.053 0 3.258-.925 3.258-3.001 0-2.077-1.205-3.003-3.258-3.003H9.947a.497.497 0 00-.497.508v6.708c0 .275.231.506.508.506h1.015c.287 0 .508-.23.508-.506V52.24h2.585c2.053 0 3.258-.925 3.258-3.001 0-2.077-1.205-3.003-3.258-3.003H9.947zm15.095 0h-6.217a.504.504 0 00-.508.496v6.708c0 .287.22.518.508.518h6.195c.287 0 .508-.23.508-.506v-.518a.494.494 0 00-.496-.495h-4.683v-1.587h4.041c.277 0 .508-.23.508-.507v-.506a.513.513 0 00-.508-.507h-4.04v-1.575h4.692c.276 0 .508-.22.508-.506v-.507a.506.506 0 00-.508-.508h-6.217a.504.504 0 00-.508.496v6.708c0 .287.22.518.508.518h6.195c.287 0 .508-.23.508-.506v-.518a.494.494 0 00-.496-.495h-4.683v-1.587h4.041c.277 0 .508-.23.508-.507v-.506a.513.513 0 00-.508-.507h-4.04v-1.575h4.692c.276 0 .508-.22.508-.506v-.507a.506.506 0 00-.508-.508zm1.656 6.203h-.419a.504.504 0 00-.508.495v.518c0 .275.232.506.508.506h7.84c.277 0 .508-.22.508-.495v-6.73a.504.504 0 00-.508-.497h-2.916c-1.567 0-3.08.398-3.5 2.116l-1.005 4.087h-.419a.504.504 0 00-.508.495v.518c0 .275.232.506.508.506h7.84c.277 0 .508-.22.508-.495v-6.73a.504.504 0 00-.508-.497h-2.916c-1.567 0-3.08.398-3.5 2.116l-1.005 4.087zm2.982-3.623c.155-.651.618-1.059 1.303-1.059h1.613v4.682h-3.821l.905-3.623c.155-.651.618-1.059 1.303-1.059h1.613v4.682h-3.821l.905-3.623zm13.847 5.142a.515.515 0 00.51-.508v-6.705a.506.506 0 00-.498-.509h-1.59c-.265 0-.586.245-.74.509l-3.07 5.381v-5.391a.505.505 0 00-.508-.499h-.95a.501.501 0 00-.508.509v6.705c0 .275.221.508.508.508h1.79c.286 0 .628-.233.784-.508l2.816-4.996v4.996c0 .275.231.508.507.508h.95a.515.515 0 00.508-.508v-6.705a.506.506 0 00-.497-.509h-1.59c-.265 0-.586.245-.74.509l-3.07 5.381v-5.391a.505.505 0 00-.508-.499h-.95a.501.501 0 00-.508.509v6.705c0 .275.221.508.508.508h1.79c.286 0 .628-.233.784-.508l2.816-4.996v4.996c0 .275.231.508.507.508h.95zm1.9-7.722a.499.499 0 00-.507.508v.507c0 .286.22.506.508.506h2.407v5.704c0 .276.231.497.507.497h1.016a.505.505 0 00.508-.497v-5.704h2.408a.5.5 0 00.508-.506v-.507a.5.5 0 00-.508-.508h-6.846a.499.499 0 00-.508.508v.507c0 .286.22.506.508.506h2.407v5.704c0 .276.231.497.507.497h1.016a.505.505 0 00.508-.497v-5.704h2.408a.5.5 0 00.508-.506v-.507a.5.5 0 00-.508-.508h-6.846zm17.547 2.16c1.226 0 2.043.528 2.043 1.707s-.817 1.707-2.043 1.707v-3.414c1.226 0 2.043.528 2.043 1.707s-.817 1.707-2.043 1.707v-3.414zm-1.458-2.49a.508.508 0 00-.518.507v.529c-2.276 0-4.02.826-4.02 3.161 0 2.336 1.744 3.162 4.02 3.162v.528c0 .276.232.507.518.507h.994c.287 0 .52-.231.52-.507v-.528c2.274 0 4.019-.826 4.019-3.162 0-2.335-1.745-3.161-4.02-3.161v-.529a.51.51 0 00-.519-.507h-.994a.508.508 0 00-.518.507v.529c-2.276 0-4.02.826-4.02 3.161 0 2.336 1.744 3.162 4.02 3.162v.528c0 .276.232.507.518.507h.994c.287 0 .52-.231.52-.507v-.528c2.274 0 4.019-.826 4.019-3.162 0-2.335-1.745-3.161-4.02-3.161v-.529a.51.51 0 00-.519-.507h-.994zm-.464 5.904c-1.225 0-2.042-.528-2.042-1.707s.817-1.707 2.042-1.707v3.414c-1.225 0-2.042-.528-2.042-1.707s.817-1.707 2.042-1.707v3.414zm14.345 2.148a.514.514 0 00.508-.508v-6.705a.506.506 0 00-.496-.509h-1.59c-.265 0-.586.245-.741.509l-3.07 5.381v-5.391a.506.506 0 00-.507-.499h-.95a.501.501 0 00-.508.509v6.705c0 .275.221.508.508.508h1.788c.288 0 .63-.233.785-.508l2.815-4.996v4.996c0 .275.233.508.508.508h.95a.514.514 0 00.508-.508v-6.705a.506.506 0 00-.496-.509h-1.59c-.265 0-.586.245-.741.509l-3.07 5.381v-5.391a.506.506 0 00-.507-.499h-.95a.501.501 0 00-.508.509v6.705c0 .275.221.508.508.508h1.788c.288 0 .63-.233.785-.508l2.815-4.996v4.996c0 .275.233.508.508.508h.95zm7.797-.495c0 .275.232.495.508.495h1.004c.287 0 .52-.23.52-.506v-6.707a.51.51 0 00-.52-.509h-1.004a.508.508 0 00-.508.509v2.433h-3.71v-2.433a.508.508 0 00-.508-.509H77.97a.51.51 0 00-.52.509v6.707c0 .275.233.506.52.506h1.006c.275 0 .507-.22.507-.495v-2.765h3.711v2.765c0 .275.232.495.508.495h1.004c.287 0 .52-.23.52-.506v-6.707a.51.51 0 00-.52-.509h-1.004a.508.508 0 00-.508.509v2.433h-3.71v-2.433a.508.508 0 00-.508-.509H77.97a.51.51 0 00-.52.509v6.707c0 .275.233.506.52.506h1.006c.275 0 .507-.22.507-.495v-2.765h3.711v2.765zm2.937 0c-.077.275.089.495.375.495h1.061c.287 0 .563-.22.64-.506l.364-1.355h3.832v1.355a.5.5 0 00.509.506h1.016c.275 0 .507-.22.507-.495v-6.73c0-.265-.199-.497-.464-.497h-2.904c-1.568 0-3.125.386-3.577 2.095l-1.36 5.132c-.076.275.09.495.376.495h1.061c.287 0 .563-.22.64-.506l.364-1.355h3.832v1.355a.5.5 0 00.509.506h1.016c.275 0 .507-.22.507-.495v-6.73c0-.265-.199-.497-.464-.497h-2.904c-1.568 0-3.125.386-3.577 2.095l-1.36 5.132zm3.313-4.623c.176-.663.73-1.083 1.425-1.083h1.534v2.82h-3.434l.475-1.737c.176-.663.73-1.083 1.425-1.083h1.534v2.82h-3.434l.475-1.737zm12.28 4.623c0 .275.232.495.508.495h1.005c.287 0 .519-.23.519-.506v-6.707a.51.51 0 00-.52-.509h-1.004a.508.508 0 00-.508.509v2.433h-3.711v-2.433a.507.507 0 00-.507-.509H96.5a.51.51 0 00-.519.509v6.707c0 .275.233.506.52.506h1.005c.275 0 .507-.22.507-.495v-2.765h3.71v2.765c0 .275.233.495.509.495h1.005c.287 0 .519-.23.519-.506v-6.707a.51.51 0 00-.52-.509h-1.004a.508.508 0 00-.508.509v2.433h-3.711v-2.433a.507.507 0 00-.507-.509H96.5a.51.51 0 00-.519.509v6.707c0 .275.233.506.52.506h1.005c.275 0 .507-.22.507-.495v-2.765h3.71v2.765zm3.137-3.36c0 2.677 1.358 3.9 3.997 3.9h1.314c1.502 0 3.103-.804 3.103-2.369a.558.558 0 00-.552-.595h-.641c-.31 0-.563.144-.773.595-.243.518-.662.848-1.324.848h-1.073c-1.59 0-2.02-.583-2.02-2.379 0-1.795.43-2.38 2.02-2.38h.962c.662 0 1.08.332 1.324.849.21.451.465.595.774.595h.64a.558.558 0 00.552-.595c0-1.564-1.601-2.368-3.102-2.368h-1.204c-2.64 0-3.997 1.222-3.997 3.9 0 2.676 1.358 3.898 3.997 3.898h1.314c1.502 0 3.103-.803 3.103-2.368a.558.558 0 00-.552-.595h-.641c-.31 0-.563.144-.773.595-.243.518-.662.848-1.324.848h-1.073c-1.59 0-2.02-.583-2.02-2.379 0-1.795.43-2.38 2.02-2.38h.962c.662 0 1.08.332 1.324.849.21.451.465.595.774.595h.64a.558.558 0 00.552-.595c0-1.564-1.601-2.368-3.102-2.368h-1.204c-2.64 0-3.997 1.222-3.997 3.9z" fill="#454544"/><path d="M25.377 1.814S12.066-4.256.767 5.81c-2.01 4.69.566 3.416.566 3.416S5.93 3.965 15.552 3.872c9.623-.093 9.464 1.136 9.464 1.136s1.955-.483.361-3.194c0 0-13.311-6.07-24.61 3.996-2.01 4.69.566 3.416.566 3.416S5.93 3.965 15.552 3.872c9.623-.093 9.464 1.136 9.464 1.136s1.955-.483.361-3.194z" transform="translate(41.179 .001)" fill="url(#svgo-krk_logo-9a)"/><path d="M7.062 3.815s17.819-7.46 30.135-1.516c1.22 2.964-3.922 2.976-3.922 2.976s-6.938-2.362-20.612.728C5.456 7.916 2.049 11.396 2.049 11.396S-.265 13.151.025 8.582c-.217-1.837 7.037-4.766 7.037-4.766S24.881-3.644 37.197 2.3c1.22 2.964-3.922 2.976-3.922 2.976s-6.938-2.362-20.612.728C5.456 7.916 2.049 11.396 2.049 11.396S-.265 13.151.025 8.582c-.217-1.837 7.037-4.766 7.037-4.766z" transform="translate(37.267 7.565)" fill="url(#svgo-krk_logo-10b)"/><path d="M35.429 5.599s3.226-2.053 3.662-2.836c.192-.592-.778-2.615-3.549-2.763-9.022.141-23.167-.45-31.4 4.303-.802 1.044-5.29 2.219-3.864 5.63 1.695 2.95 2.608 2.6 2.608 2.6S3.497 9.91 4.161 9.84c.666-.07 4.952-6.994 25.187-5.752 4.026.262 6.08 1.51 6.08 1.51s3.227-2.053 3.663-2.836c.192-.592-.778-2.615-3.549-2.763-9.022.141-23.167-.45-31.4 4.303-.802 1.044-5.29 2.219-3.864 5.63 1.695 2.95 2.608 2.6 2.608 2.6S3.497 9.91 4.161 9.84c.666-.07 4.952-6.994 25.187-5.752 4.026.262 6.08 1.51 6.08 1.51z" transform="translate(38.01 16.775)" fill="url(#svgo-krk_logo-11c)"/><path d="M26.934 4.65s2.165-1.369 2.743-2.163c.588-.478-1.333-2.124-1.54-2.023-.208.1-20.008-1.86-25.138 1.595C.626 3.74 0 4.96 0 4.96s4.752 1.505 5.802 1.47c1.048-.036 3.506-4.207 14.696-3.405 2.786.432 6.436 1.625 6.436 1.625s2.165-1.368 2.743-2.162c.588-.478-1.333-2.124-1.54-2.023-.208.1-20.008-1.86-25.138 1.595C.626 3.74 0 4.96 0 4.96s4.752 1.505 5.802 1.47c1.048-.036 3.506-4.207 14.696-3.405 2.786.432 6.436 1.625 6.436 1.625z" transform="translate(44.747 26.752)" fill="url(#svgo-krk_logo-12d)"/><path d="M57.533 12.985c5.071 0 9.183 4.081 9.183 9.114 0 5.032-4.112 9.113-9.183 9.113-5.072 0-9.185-4.08-9.185-9.113 0-5.033 4.113-9.114 9.185-9.114 5.071 0 9.183 4.081 9.183 9.114 0 5.032-4.112 9.113-9.183 9.113-5.072 0-9.185-4.08-9.185-9.113 0-5.033 4.113-9.114 9.185-9.114z" fill="#FEFEFE" stroke="#2E2E2D" stroke-width=".7"/><path d="M57.533 13.431c4.797 0 8.689 3.882 8.689 8.668 0 4.787-3.892 8.668-8.69 8.668s-8.689-3.881-8.689-8.668c0-4.786 3.891-8.668 8.69-8.668 4.797 0 8.689 3.882 8.689 8.668 0 4.787-3.892 8.668-8.69 8.668s-8.689-3.881-8.689-8.668c0-4.786 3.891-8.668 8.69-8.668z" fill="#ECC02F"/><g fill="#FEFEFE"><path d="M55.493 25.956v-9.482h3.077c1.167 0 1.929.048 2.282.144.544.141 1.003.45 1.37.927.368.476.551 1.092.551 1.845 0 .583-.105 1.073-.318 1.468-.213.397-.48.71-.808.936a2.773 2.773 0 01-.994.449c-.458.09-1.122.137-1.992.137h-1.25v3.576h-1.918v-9.482h3.077c1.167 0 1.929.048 2.282.144.544.141 1.003.45 1.37.927.368.476.551 1.092.551 1.845 0 .583-.105 1.073-.318 1.468-.213.397-.48.71-.808.936a2.773 2.773 0 01-.994.449c-.458.09-1.122.137-1.992.137h-1.25v3.576h-1.918zm1.918-7.877v2.689h1.049c.757 0 1.264-.048 1.518-.148a1.26 1.26 0 00.6-.466c.144-.211.217-.457.217-.737 0-.344-.102-.63-.306-.855a1.324 1.324 0 00-.77-.42c-.23-.043-.69-.063-1.38-.063h-.928v2.689h1.049c.757 0 1.264-.048 1.518-.148a1.26 1.26 0 00.6-.466c.144-.211.217-.457.217-.737 0-.344-.102-.63-.306-.855a1.324 1.324 0 00-.77-.42c-.23-.043-.69-.063-1.38-.063h-.928z"/><path d="M54.096 20.76h1.921v1.592h-1.92V20.76h1.92v1.592h-1.92V20.76zm.019 2.128h7.784v1.59h-7.784v-1.59h7.784v1.59h-7.784v-1.59z"/><path d="M57.41 27.955v-4.726h-1.923v4.726h1.924v-4.726h-1.924v4.726h1.924z"/></g><path d="M.52 0S-.466 2.8.276 6.542C1.02 10.286 21.951 20.73 39.374 9.46c.892-3.259.884-5.796.884-5.796S34.596 9.467 19.319 8.98C4.649 8.164-.227.717.52 0c0 0-.984 2.8-.242 6.542.743 3.744 21.674 14.188 39.097 2.917.892-3.259.884-5.796.884-5.796S34.597 9.466 19.32 8.979C4.649 8.164-.227.717.52 0z" transform="translate(36.844 15.875)" fill="url(#svgo-krk_logo-13e)"/><path d="M0 0s1.938 9.468 15.732 11.696c13.795 2.229 20.981-8.623 20.427-9.065-.554-.443-4.774 7.002-22.448 3.982C2.398 4.647 0 0 0 0s1.938 9.468 15.732 11.696c13.795 2.229 20.981-8.623 20.427-9.065-.554-.443-4.774 7.002-22.448 3.982C2.398 4.647 0 0 0 0z" transform="translate(38.264 26.608)" fill="url(#svgo-krk_logo-14f)"/><path d="M.859 7.346c.262.338 7.923 2.76 15.865-.543 6.2-2.956-.393-6.715-1.167-6.803.198.687 1.59 2.598-.886 3.41-2.475.813-7.417 1.516-10.918.442C-.372 3.166-.694 6.134.859 7.346c.262.338 7.923 2.76 15.865-.543 6.2-2.956-.393-6.715-1.167-6.803.198.687 1.59 2.598-.886 3.41-2.475.813-7.417 1.516-10.918.442C-.372 3.166-.694 6.134.859 7.346z" transform="translate(50.998 1.815)" fill="url(#svgo-krk_logo-15g)"/><path d="M2.379 0s-6.16 5.225 1.345 9.697c7.505 4.472 24.336 5.663 33.109-.475-.297-3.335-1.947-5.162-1.947-5.162s-.978 4.504-16.407 4.856C3.877 8.703 1.605 3.013 2.379 0c0 0-6.16 5.225 1.345 9.697 7.505 4.472 24.336 5.663 33.109-.475-.297-3.335-1.947-5.162-1.947-5.162s-.978 4.504-16.407 4.856C3.877 8.703 1.605 3.013 2.379 0z" transform="translate(39.577 5.803)" fill="url(#svgo-krk_logo-16h)"/></svg>